<?xml version="1.0" encoding="UTF-8" standalone="no"?>
<!-- The icon can be used freely in both personal and commercial projects with no attribution required, but always appreciated. 
You may NOT sub-license, resell, rent, redistribute or otherwise transfer the icon without express written permission from iconmonstr.com -->

<svg
   xmlns:dc="http://purl.org/dc/elements/1.1/"
   xmlns:cc="http://creativecommons.org/ns#"
   xmlns:rdf="http://www.w3.org/1999/02/22-rdf-syntax-ns#"
   xmlns:svg="http://www.w3.org/2000/svg"
   xmlns="http://www.w3.org/2000/svg"
   xmlns:sodipodi="http://sodipodi.sourceforge.net/DTD/sodipodi-0.dtd"
   xmlns:inkscape="http://www.inkscape.org/namespaces/inkscape"
   version="1.1"
   x="0px"
   y="0px"
   width="64"
   height="64"
   viewBox="0 0 64 64"
   enable-background="new 0 0 512 512"
   xml:space="preserve"
   id="svg6181"
   inkscape:version="0.48.2 r9819"
   sodipodi:docname="iconmonstr-calendar-4-icon.svg"><metadata
   id="metadata6188"><rdf:RDF><cc:Work
       rdf:about=""><dc:format>image/svg+xml</dc:format><dc:type
         rdf:resource="http://purl.org/dc/dcmitype/StillImage" /><dc:title></dc:title></cc:Work></rdf:RDF></metadata><defs
   id="defs6186" /><sodipodi:namedview
   pagecolor="#ffffff"
   bordercolor="#666666"
   borderopacity="1"
   objecttolerance="10"
   gridtolerance="10"
   guidetolerance="10"
   inkscape:pageopacity="0"
   inkscape:pageshadow="2"
   inkscape:window-width="1436"
   inkscape:window-height="856"
   id="namedview6184"
   showgrid="false"
   inkscape:zoom="0.4609375"
   inkscape:cx="-130.16949"
   inkscape:cy="256"
   inkscape:window-x="4"
   inkscape:window-y="0"
   inkscape:window-maximized="1"
   inkscape:current-layer="svg6181" />
<path
   id="calendar-4-icon"
   d="m 48.472505,15.937593 c 0,1.169125 -0.947767,2.11701 -2.116893,2.11701 -1.169127,0 -2.11701,-0.947884 -2.11701,-2.11701 v -5.327652 c 0,-1.1690085 0.947883,-2.1168925 2.11701,-2.1168925 1.169126,0 2.116893,0.947884 2.116893,2.1168925 v 5.327651 z M 19.870563,10.600389 c 0,-1.1691265 -0.947883,-2.1170105 -2.116893,-2.1170105 -1.169243,0 -2.11701,0.947884 -2.11701,2.1170105 v 5.327534 c 0,1.169125 0.947767,2.11701 2.11701,2.11701 1.16901,0 2.116893,-0.947884 2.116893,-2.11701 v -5.327534 z m 31.160738,3.09099 v 2.168855 c 0,2.578252 -2.097553,4.675805 -4.675689,4.675805 -2.578253,0 -4.675806,-2.097553 -4.675806,-4.675805 V 13.691379 H 22.429359 v 2.159185 c 0,2.578252 -2.097553,4.675806 -4.675689,4.675806 -2.578253,0 -4.675806,-2.097554 -4.675806,-4.675806 V 13.691378 H 8 V 55.516621 H 56 V 13.691378 h -4.968699 z m 0.308505,37.165048 H 12.660194 V 24.937476 h 38.679612 v 25.918951 z m -18.156,-9.631922 c 0,-1.716233 -0.894874,-3.056971 -2.375185,-3.626097 1.131962,-0.565282 1.789864,-1.726369 1.789864,-3.216699 0,-2.879301 -2.808116,-4.599845 -5.522796,-4.599845 -3.159262,0 -5.544582,1.978951 -5.689048,5.913437 h 3.51798 c -0.03029,-1.627806 0.58101,-2.813592 2.193554,-2.813592 0.961048,0 1.995495,0.582059 1.995495,1.860233 0,1.613476 -1.746641,1.844621 -3.353942,1.704116 v 2.738331 c 2.284194,0 3.646602,0.144932 3.646602,2.107922 0,1.549514 -1.171806,2.243068 -2.332893,2.243068 -1.76132,0 -2.480388,-1.313825 -2.543884,-3.106369 h -3.492932 c -0.06617,4.048194 2.386952,6.183612 6.08167,6.183612 3.301165,-2.34e-4 6.085515,-2.017981 6.085515,-5.388117 z m 9.229048,5.09499 V 30.096893 h -2.977398 c -0.36932,2.468505 -2.129592,3.190602 -4.646679,3.122447 v 2.881048 h 3.961631 v 10.219107 h 3.662446 z"
   inkscape:connector-curvature="0"
   style="fill:#dddddd;fill-opacity:1" />
</svg>