<?xml version="1.0" encoding="UTF-8" standalone="no"?>
<!-- The icon can be used freely in both personal and commercial projects with no attribution required, but always appreciated. 
You may NOT sub-license, resell, rent, redistribute or otherwise transfer the icon without express written permission from iconmonstr.com -->

<svg
   xmlns:dc="http://purl.org/dc/elements/1.1/"
   xmlns:cc="http://creativecommons.org/ns#"
   xmlns:rdf="http://www.w3.org/1999/02/22-rdf-syntax-ns#"
   xmlns:svg="http://www.w3.org/2000/svg"
   xmlns="http://www.w3.org/2000/svg"
   xmlns:sodipodi="http://sodipodi.sourceforge.net/DTD/sodipodi-0.dtd"
   xmlns:inkscape="http://www.inkscape.org/namespaces/inkscape"
   version="1.1"
   x="0px"
   y="0px"
   width="64"
   height="64"
   viewBox="0 0 64 64"
   enable-background="new 0 0 512 512"
   xml:space="preserve"
   id="svg8513"
   inkscape:version="0.48.2 r9819"
   sodipodi:docname="help.svg"><metadata
   id="metadata8520"><rdf:RDF><cc:Work
       rdf:about=""><dc:format>image/svg+xml</dc:format><dc:type
         rdf:resource="http://purl.org/dc/dcmitype/StillImage" /><dc:title></dc:title></cc:Work></rdf:RDF></metadata><defs
   id="defs8518" /><sodipodi:namedview
   pagecolor="#ffffff"
   bordercolor="#666666"
   borderopacity="1"
   objecttolerance="10"
   gridtolerance="10"
   guidetolerance="10"
   inkscape:pageopacity="0"
   inkscape:pageshadow="2"
   inkscape:window-width="1436"
   inkscape:window-height="856"
   id="namedview8516"
   showgrid="false"
   inkscape:zoom="0.4609375"
   inkscape:cx="-130.16949"
   inkscape:cy="256"
   inkscape:window-x="4"
   inkscape:window-y="0"
   inkscape:window-maximized="1"
   inkscape:current-layer="svg8513" />

<path
   id="help-6-icon"
   d="m 32.648233,40.882505 c -1.309631,0 -2.371806,-1.062175 -2.371806,-2.372272 0,-1.309515 1.062291,-2.371457 2.371806,-2.371457 1.310097,0 2.371922,1.061942 2.371922,2.371457 1.17e-4,1.310097 -1.061708,2.372272 -2.371922,2.372272 z m 1.86501,-7.010796 v 0.426524 c 0,0 -3.556194,0 -3.910136,0 v -0.426524 c 0,-1.207457 0.176272,-2.756272 1.578058,-4.102835 1.401786,-1.34668 3.153553,-2.459068 3.153553,-4.141515 0,-1.859883 -1.29064,-2.843534 -2.918097,-2.843534 -2.711883,0 -2.888854,2.812311 -2.955844,3.431534 h -3.803068 c 0.101475,-2.93266 1.340738,-7.034563 6.781514,-7.034563 4.714835,0 6.834758,3.157747 6.834758,6.118951 2.33e-4,4.713321 -4.760738,5.532 -4.760738,8.571962 z M 8.106951,54.211359 C 10.048505,50.349573 12.203845,45.048602 12.093398,41.352602 9.477748,38.198582 8,34.133961 8,29.994194 8,18.322388 19.323107,9.788641 32,9.788641 c 12.597903,0 24,8.469669 24,20.205553 0,12.22066 -13.463534,23.633359 -31.936194,19.096777 -3.355107,2.074136 -10.753165,4.171223 -15.956855,5.120388 z M 32,14.462466 c -10.656583,0 -19.326291,6.967573 -19.326291,15.531728 0,4.506408 1.944932,7.344116 4.690019,10.14233 -0.557942,4.154796 -1.897747,7.766447 -1.897747,7.766447 0,0 3.961165,-1.048544 8.461631,-3.676894 17.22,4.566292 27.398563,-5.370174 27.398563,-14.231883 0,-8.564272 -8.669709,-15.531728 -19.326175,-15.531728 z"
   inkscape:connector-curvature="0"
   style="fill:#dddddd;fill-opacity:1" />

</svg>