<?xml version="1.0" encoding="UTF-8" standalone="no"?>
<!-- Created with Inkscape (http://www.inkscape.org/) -->

<svg
   xmlns:dc="http://purl.org/dc/elements/1.1/"
   xmlns:cc="http://creativecommons.org/ns#"
   xmlns:rdf="http://www.w3.org/1999/02/22-rdf-syntax-ns#"
   xmlns:svg="http://www.w3.org/2000/svg"
   xmlns="http://www.w3.org/2000/svg"
   xmlns:sodipodi="http://sodipodi.sourceforge.net/DTD/sodipodi-0.dtd"
   xmlns:inkscape="http://www.inkscape.org/namespaces/inkscape"
   width="72"
   height="72"
   id="svg2"
   version="1.1"
   inkscape:version="0.48.2 r9819"
   sodipodi:docname="ic_launcher.svg"
   inkscape:export-filename="/Users/emerix/Dropbox/FlickrUploader/logo.png"
   inkscape:export-xdpi="640"
   inkscape:export-ydpi="640">
  <defs
     id="defs4" />
  <sodipodi:namedview
     id="base"
     pagecolor="#ffffff"
     bordercolor="#666666"
     borderopacity="1.0"
     inkscape:pageopacity="0.0"
     inkscape:pageshadow="2"
     inkscape:zoom="11.313709"
     inkscape:cx="25.451563"
     inkscape:cy="39.100155"
     inkscape:document-units="px"
     inkscape:current-layer="g3034"
     showgrid="false"
     fit-margin-top="0"
     fit-margin-left="0"
     fit-margin-right="0"
     fit-margin-bottom="0"
     inkscape:window-width="1916"
     inkscape:window-height="1036"
     inkscape:window-x="4"
     inkscape:window-y="0"
     inkscape:window-maximized="1" />
  <metadata
     id="metadata7">
    <rdf:RDF>
      <cc:Work
         rdf:about="">
        <dc:format>image/svg+xml</dc:format>
        <dc:type
           rdf:resource="http://purl.org/dc/dcmitype/StillImage" />
        <dc:title></dc:title>
      </cc:Work>
    </rdf:RDF>
  </metadata>
  <g
     inkscape:label="Layer 1"
     inkscape:groupmode="layer"
     id="layer1"
     transform="translate(-685.57148,-645.71947)">
    <g
       id="g3034"
       transform="translate(44.740145,-27.387107)">
      <g
         id="g4128"
         transform="matrix(1.5000144,0,0,1.5000144,-320.425,-372.5639)">
        <path
           sodipodi:nodetypes="zzzzzzzzz"
           inkscape:connector-curvature="0"
           id="rect4125"
           d="m 643.94004,697.23083 c 1.66463,0 40.12922,0 41.7826,0 1.65338,0 2.98447,1.28802 2.98447,2.98447 0,1.69645 0,40.02748 0,41.78261 0,1.75513 -1.2964,2.98447 -2.98447,2.98447 -1.68807,0 -40.01969,0 -41.7826,0 -1.76291,0 -2.98447,-1.28077 -2.98447,-2.98447 0,-1.7037 0,-40.26489 0,-41.78261 0,-1.51772 1.31984,-2.98447 2.98447,-2.98447 z"
           style="fill:#ffffff;fill-opacity:1;fill-rule:nonzero;stroke:#4e5782;stroke-width:0.248;stroke-linejoin:round;stroke-miterlimit:4;stroke-opacity:1" />
        <rect
           style="fill:#0063c8;fill-opacity:1;fill-rule:evenodd;stroke:#003468;stroke-width:1.15093338px;stroke-linecap:butt;stroke-linejoin:miter;stroke-opacity:1"
           id="rect3025"
           width="39.825798"
           height="6.0752325"
           x="644.9408"
           y="734.89209" />
        <path
           inkscape:connector-curvature="0"
           style="fill:#ff0084;fill-opacity:1;fill-rule:evenodd;stroke:#830044;stroke-width:1px;stroke-linecap:butt;stroke-linejoin:miter;stroke-opacity:1"
           d="m 664.79023,701.50088 -10.59375,14.15625 c 3.79253,0.0117 5.09109,0.0133 6.625,0.0312 l 0,13.90625 7.3125,0 0,-13.84375 c 0.79574,-0.009 0.0657,0.008 7.15625,-0.0937 l -10.5,-14.15625 z"
           id="rect3027" />
      </g>
    </g>
  </g>
</svg>
