<?xml version="1.0" encoding="UTF-8" standalone="no"?>
<!-- Created with clker.com Auto tracing tool http://www.clker.com) -->

<svg
   xmlns:dc="http://purl.org/dc/elements/1.1/"
   xmlns:cc="http://creativecommons.org/ns#"
   xmlns:rdf="http://www.w3.org/1999/02/22-rdf-syntax-ns#"
   xmlns:svg="http://www.w3.org/2000/svg"
   xmlns="http://www.w3.org/2000/svg"
   xmlns:sodipodi="http://sodipodi.sourceforge.net/DTD/sodipodi-0.dtd"
   xmlns:inkscape="http://www.inkscape.org/namespaces/inkscape"
   width="48"
   height="48"
   id="svg2"
   version="1.1"
   inkscape:version="0.48.2 r9819"
   sodipodi:docname="ignore.svg">
  <metadata
     id="metadata18">
    <rdf:RDF>
      <cc:Work
         rdf:about="">
        <dc:format>image/svg+xml</dc:format>
        <dc:type
           rdf:resource="http://purl.org/dc/dcmitype/StillImage" />
        <dc:title />
      </cc:Work>
    </rdf:RDF>
  </metadata>
  <defs
     id="defs16" />
  <sodipodi:namedview
     pagecolor="#ffffff"
     bordercolor="#666666"
     borderopacity="1"
     objecttolerance="10"
     gridtolerance="10"
     guidetolerance="10"
     inkscape:pageopacity="0"
     inkscape:pageshadow="2"
     inkscape:window-width="1436"
     inkscape:window-height="856"
     id="namedview14"
     showgrid="false"
     fit-margin-top="0"
     fit-margin-left="0"
     fit-margin-right="0"
     fit-margin-bottom="0"
     inkscape:zoom="1.6"
     inkscape:cx="-198.31116"
     inkscape:cy="-3.520096"
     inkscape:window-x="4"
     inkscape:window-y="0"
     inkscape:window-maximized="1"
     inkscape:current-layer="svg2" />
  <path
     style="fill:#ffffff;fill-opacity:1;fill-rule:evenodd;stroke:#000000;stroke-width:1;stroke-linecap:butt;stroke-linejoin:miter;stroke-miterlimit:4;stroke-opacity:1;stroke-dasharray:none"
     d="m 24.28155,4.0874495 c 0.62974,0.006 1.27958,0.0636 1.94953,0.17057 0.85752,0.0713 1.55426,0.17837 2.0902,0.32105 0.53596,0.1427 0.98259,0.24972 1.33989,0.32106 0.3573,0.14269 0.87538,0.33889 1.55426,0.58861 0.67887,0.24971 1.37561,0.5707595 2.09022,0.9631695 0.71459,0.39239 1.39347,0.80263 2.03661,1.23071 0.67888,0.49942 1.32202,0.99885 1.92944,1.49826 0.6074,0.57077 1.14335,1.1237 1.60785,1.6588 0.50021,0.5351 0.92898,1.08801 1.28629,1.6588 0.42877,0.53509 0.80393,1.10586 1.1255,1.712291 0.3573,0.64212 0.661,1.24856 0.91111,1.81933 0.28585,0.6421 0.53596,1.31988 0.75034,2.03335 0.21438,0.71345 0.42877,1.56961 0.64314,2.56846 0.14293,0.96316 0.23225,1.94417 0.26798,2.94301 l 0.0537,1.49827 -0.0537,0 -0.0537,0.85614 c -0.0714,0.57078 -0.17866,1.21289 -0.32156,1.92634 -0.14292,0.71346 -0.28586,1.37341 -0.42876,1.97985 -0.21439,0.64211 -0.51808,1.40908 -0.91114,2.30091 -0.39302,0.89182 -0.73245,1.55177 -1.01831,1.97984 -0.25011,0.42807 -0.58954,0.94533 -1.0183,1.55178 -0.42876,0.60644 -0.73248,1.01669 -0.91113,1.23071 -0.21438,0.28539 -0.33943,0.42809 -0.37516,0.42809 -0.0358,0 -0.0893,0.0535 -0.16079,0.16052 -0.0358,0.10702 -0.37517,0.44591 -1.01831,1.01669 -0.64314,0.6421 -1.00045,0.96316 -1.0719,0.96316 -0.0714,0.0357 -0.1072,0.0713 -0.1072,0.10702 0,0.0357 -0.33943,0.28538 -1.01831,0.74912 -0.64314,0.42808 -1.26841,0.82049 -1.87582,1.17722 -0.60741,0.35672 -1.2327,0.65995 -1.87584,0.90965 -0.67887,0.24972 -1.30415,0.48159 -1.87583,0.69563 -0.57168,0.14269 -1.30415,0.32106 -2.19741,0.5351 -0.92898,0.14268 -1.8937,0.24971 -2.89414,0.32104 -0.96471,0 -1.8401,-0.0357 -2.62617,-0.10701 -0.78605,-0.0714 -1.51852,-0.17837 -2.1974,-0.32105 -0.7146,-0.1427 -1.44707,-0.32106 -2.1974,-0.5351 -0.75033,-0.28538 -1.51853,-0.60644 -2.30459,-0.96316 -0.75035,-0.35674 -1.41135,-0.71347 -1.98303,-1.0702 -0.57169,-0.35672 -1.05404,-0.65995 -1.44708,-0.90966 -0.39303,-0.28538 -0.58955,-0.44591 -0.58955,-0.48158 0,-0.0357 -0.0713,-0.10702 -0.21437,-0.21405 -0.10719,-0.0713 -0.23226,-0.16052 -0.37517,-0.26754 -0.14292,-0.10702 -0.21437,-0.17836 -0.21437,-0.21403 0,-0.0357 -0.0537,-0.0891 -0.1608,-0.16053 C 10.31319,38.68239 10.02735,38.41487 9.56285,37.91545 9.09836,37.41603 8.79465,37.07714 8.65173,36.89876 8.50881,36.7204 8.41948,36.61338 8.38375,36.57772 c 0,-0.0357 -0.0179,-0.0535 -0.0537,-0.0535 -0.0358,0 -0.12505,-0.12486 -0.26799,-0.37456 C 7.91915,35.93561 7.81196,35.79292 7.7405,35.72156 7.7047,35.68586 7.49038,35.36484 7.09735,34.7584 6.70434,34.18763 6.32916,33.54552 5.97186,32.83206 5.61455,32.08292 5.32872,31.3338 5.11433,30.58466 4.82849,29.8712 4.61411,29.19342 4.47119,28.55131 4.32828,27.94487 4.22108,27.33843 4.14962,26.73199 4.07832,26.16122 4.04243,25.25156 4.04243,24.003 c 0,-1.24854 0.0713,-2.37225 0.21437,-3.37108 0.21439,-0.96318 0.42877,-1.81932 0.64315,-2.56845 0.21438,-0.74914 0.4645,-1.40908 0.75034,-1.97985 0.2501,-0.60644 0.57168,-1.23072 0.96471,-1.87283 0.3573,-0.642101 0.7146,-1.230721 1.07191,-1.765801 0.39303,-0.53511 0.7146,-0.94535 0.96471,-1.23074 0.21439,-0.28538 0.33945,-0.42807 0.37519,-0.42807 l 0.0536,-0.0535 0,-0.0535 0.0537,-0.0535 0.0537,-0.0535 0,-0.0535 0.0537,0 c 0,-0.0357 0.14291,-0.17835 0.42876,-0.42807 0.25011,-0.28537 0.58954,-0.60644 1.0183,-0.96318 0.42877,-0.35672 0.64315,-0.55291 0.64315,-0.58859 0,-0.0357 0.12505,-0.1427 0.37517,-0.32105 0.25011,-0.14271 0.66101,-0.41025 1.23269,-0.80265 0.57169,-0.3924 1.19695,-0.76697 1.87584,-1.12369 0.67887,-0.3210695 1.32201,-0.6064395 1.92942,-0.8561595 0.64315,-0.21403 1.26842,-0.42807 1.87583,-0.64211 0.64315,-0.14269 1.42921,-0.28539 2.35819,-0.42807 0.92899,-0.14269 1.82224,-0.23188 2.67977,-0.26755 0.20544,-0.009 0.41312,-0.0123 0.62305,-0.0101 z m -0.30148,5.9495795 c -0.78606,0 -1.60786,0.0713 -2.46538,0.21404 -0.82179,0.14269 -1.57212,0.35673 -2.251,0.64211 -0.7146,0.21405 -1.28629,0.44591 -1.71504,0.69562 -0.42876,0.21404 -0.89326,0.48159 -1.39349,0.80265 -0.50022,0.32106 -0.80391,0.51726 -0.9111,0.58861 -0.10721,0.0713 -0.19653,0.14269 -0.26798,0.21404 l -0.26799,0.26754 c -0.14292,0.1427 -0.3037,0.28539 -0.48234,0.42807 -0.2144,0.178381 -0.32158,0.285391 -0.32158,0.321061 l 0,0.0535 -0.0537,0 0,0.0535 -0.0536,0 -0.0537,0.0535 -0.0536,0.0535 -0.0537,0 -0.0537,0.0535 -0.21437,0.32107 c -0.14292,0.21403 -0.26798,0.37456 -0.37516,0.48158 -0.1072,0.10701 -0.35731,0.44591 -0.75034,1.01667 -0.39304,0.57077 -0.69674,1.08803 -0.91113,1.55177 -0.21437,0.46375 -0.42875,0.99885 -0.64314,1.6053 -0.21437,0.60643 -0.39303,1.28421 -0.53593,2.03335 -0.14294,0.74913 -0.2144,1.60527 -0.2144,2.56845 0,0.9275 0.0714,1.81932 0.2144,2.67547 0.21437,0.89182 0.42876,1.65879 0.64313,2.3009 0.28584,0.64212 0.53594,1.19505 0.75033,1.6588 0.21438,0.42807 0.33944,0.64211 0.37518,0.64211 l 0,0.0535 0.0536,0 0,0.0535 0,0.0535 0.0537,0 0,0.0535 0.0537,0 0,-0.0535 0.0537,0 0,-0.0535 0.0536,0 0,-0.0535 0.0537,0 c 0,-0.0357 1.30416,-1.33774 3.91245,-3.90618 l 4.07324,-4.06672 c 0.0358,-0.10702 0.0714,-0.16053 0.1072,-0.16053 0.0358,-0.0357 0.14292,-0.16052 0.32156,-0.37456 0.21439,-0.21404 0.33944,-0.32106 0.37517,-0.32106 0.0358,0 0.0893,-0.0713 0.1608,-0.21403 0.10718,-0.10703 0.17863,-0.16053 0.21437,-0.16053 l 0.21438,-0.21405 c 0.0713,-0.10702 0.12506,-0.16051 0.16079,-0.16051 0.0358,0 0.0893,-0.0713 0.16079,-0.21405 0.10718,-0.10702 0.17863,-0.16052 0.21437,-0.16052 l 0.21438,-0.21404 c 0.0713,-0.10702 0.12505,-0.16053 0.16079,-0.16053 0.0358,0 0.0893,-0.0713 0.16079,-0.21404 0.10718,-0.10703 0.17865,-0.16053 0.21438,-0.16053 l 0.21437,-0.21404 c 0.0714,-0.10701 0.14293,-0.16053 0.21439,-0.16053 l 0.0537,-0.0535 0,-0.0535 0.0537,0 0,-0.0535 0.0536,0 0,-0.0535 0.0537,0 0,-0.0535 0.0537,-0.0535 0,-0.0535 0.0537,0 0.0536,-0.0535 c 0.0358,0 0.0893,-0.0535 0.16079,-0.16053 0.0714,-0.10702 0.12506,-0.16054 0.16079,-0.16054 0.0358,0 0.16078,-0.12485 0.37517,-0.37455 0.17865,-0.21404 0.28584,-0.32106 0.32156,-0.32106 l 0.21439,-0.21404 c 0.0713,-0.10702 0.12505,-0.16053 0.16079,-0.16053 0.0358,0 0.0893,-0.0713 0.16077,-0.21403 0.1072,-0.10702 0.17865,-0.16053 0.21438,-0.16053 l 0.21439,-0.21404 c 0.0713,-0.10702 0.12505,-0.16054 0.16079,-0.16054 0.0358,0 0.0893,-0.0713 0.16077,-0.21402 0.1072,-0.10702 0.17866,-0.16053 0.2144,-0.16053 l 0.21436,-0.21403 c 0.0715,-0.10703 0.12507,-0.16053 0.16079,-0.16053 0.0358,0 0.0893,-0.0713 0.16079,-0.21405 0.1072,-0.10702 0.17865,-0.16053 0.21439,-0.16053 l 0.21438,-0.21404 c 0.0714,-0.10702 0.12504,-0.16053 0.16079,-0.16053 0.0358,0 0.0893,-0.0713 0.16077,-0.21403 0.1072,-0.10701 0.17866,-0.16053 0.21439,-0.16053 0.0358,-0.0357 0.14293,-0.16052 0.32157,-0.37456 0.21438,-0.21404 0.33944,-0.32106 0.37517,-0.32106 0.0358,0 0.0893,-0.0713 0.16078,-0.21404 0.10719,-0.10702 0.17864,-0.16052 0.21438,-0.16052 l 0.21438,-0.21405 c 0.0713,-0.10702 0.12505,-0.16052 0.1608,-0.16052 0.0358,0 0.0893,-0.0713 0.16078,-0.21404 0.10718,-0.10701 0.17864,-0.16053 0.21438,-0.16053 l 0.21438,-0.214031 c 0.0714,-0.10701 0.12505,-0.16053 0.16078,-0.16053 0.0358,0 0.0893,-0.0713 0.16078,-0.21404 0.1072,-0.10702 0.17865,-0.16053 0.2144,-0.16053 l 0.21436,-0.21404 c 0.0715,-0.10702 0.12507,-0.16053 0.16079,-0.16053 0.0358,0 0.0893,-0.0713 0.16078,-0.21403 0.1072,-0.10702 0.2144,-0.19621 0.32158,-0.26754 l 0.10719,-0.0535 0,-0.0535 0.0537,-0.0535 0.0537,-0.0535 0,-0.0535 -0.0537,0 0,-0.0535 -0.0537,0 0,-0.0535 -0.64313,-0.32106 c -0.42877,-0.21404 -0.92899,-0.44592 -1.50068,-0.69563 -0.57167,-0.24972 -1.08976,-0.42807 -1.55426,-0.53509 -0.46448,-0.10702 -0.98256,-0.21404 -1.55427,-0.32105 -0.6074,-0.10702 -1.28628,-0.16053 -2.03661,-0.16053 z m -14.73868,0.64211 -0.0537,0 c 0,0.0189 0.005,0.0329 0.0151,0.0419 0.0114,-0.009 0.0243,-0.0158 0.0386,-0.0217 l 0,-0.02 z m 26.69041,6.100081 -0.0537,0 -0.0536,0 0,0.0535 -0.0536,0 0,0.0535 -0.0537,0 0,0.0535 -0.0536,0 -0.10719,0.16054 c -0.1072,0.14268 -0.21438,0.24969 -0.32158,0.32105 -0.14292,0.10702 -0.21438,0.17836 -0.21438,0.21404 0,0.0357 -0.0537,0.10702 -0.16077,0.21403 -0.1072,0.0713 -0.17866,0.12485 -0.21439,0.16054 0,0.0357 -0.0536,0.0891 -0.1608,0.16052 -0.14291,0.10702 -0.21436,0.17836 -0.21436,0.21403 0,0.0357 -0.0536,0.10702 -0.16079,0.21404 -0.10719,0.0713 -0.17865,0.12487 -0.21439,0.16053 0,0.0357 -0.1965,0.23188 -0.58954,0.58862 -0.42876,0.39239 -0.80393,0.76696 -1.1255,1.12368 -0.32157,0.35673 -0.53596,0.58861 -0.64315,0.69563 -0.10718,0.0713 -0.17864,0.12485 -0.21437,0.16053 0,0.0357 -0.0537,0.0892 -0.1608,0.16052 -0.14291,0.10702 -0.21438,0.17837 -0.21438,0.21404 0,0.0357 -0.0536,0.10703 -0.16078,0.21403 -0.10719,0.0713 -0.17865,0.12486 -0.21438,0.16054 0,0.0357 -0.0537,0.0892 -0.16079,0.16052 -0.14292,0.10703 -0.21437,0.17837 -0.21437,0.21405 0,0.0357 -0.0179,0.0713 -0.0536,0.10701 l -0.1072,0 0,0.0535 -0.0536,0 0,0.0535 -0.0537,0 -1.12551,1.17721 c -0.78606,0.74913 -1.17909,1.14154 -1.17909,1.17721 0,0.0357 -0.0537,0.10702 -0.1608,0.21405 -0.10717,0.0713 -0.17864,0.12484 -0.21437,0.16051 0,0.0357 -0.0536,0.0892 -0.16078,0.16053 -0.14293,0.10702 -0.21438,0.17837 -0.21438,0.21404 0,0.0357 -0.0537,0.10702 -0.16078,0.21404 -0.10721,0.0713 -0.17866,0.12486 -0.21439,0.16053 0,0.0357 -0.0537,0.0892 -0.16079,0.16053 -0.14292,0.10702 -0.21438,0.17836 -0.21438,0.21403 0,0.0357 -0.19652,0.24972 -0.58954,0.64212 -0.39304,0.35672 -1.44707,1.3734 -3.16213,3.05003 -1.64359,1.67663 -2.48324,2.53277 -2.51897,2.56845 0,0.0357 -0.0537,0.0892 -0.16079,0.16053 -0.14292,0.10702 -0.21438,0.17836 -0.21438,0.21405 0,0.0357 -0.0536,0.10701 -0.16078,0.21403 -0.1072,0.0713 -0.17865,0.12485 -0.21439,0.16052 0,0.0357 -0.19651,0.23188 -0.58954,0.58861 -0.42877,0.3924 -0.82179,0.7848 -1.1791,1.1772 -0.3573,0.35674 -0.55382,0.53509 -0.58954,0.53509 l 0,0.0535 -0.0537,0 0,0.0535 -0.0536,0 0,0.0535 -0.0536,0 0,0.0535 0.0536,0 0.0536,0.0535 0.0537,0.0535 0.0537,0 c 0.0358,0 0.2501,0.10701 0.64314,0.32105 0.35729,0.21404 0.85751,0.42807 1.50066,0.64211 0.64314,0.28538 1.35773,0.49943 2.1438,0.64212 0.78606,0.14268 1.71505,0.21404 2.78696,0.21404 1.10764,0 1.96516,-0.0357 2.57257,-0.10702 0.57168,-0.14269 1.21483,-0.32106 1.92942,-0.5351 0.67888,-0.21404 1.32201,-0.48158 1.92943,-0.80264 0.60741,-0.32106 1.14337,-0.64213 1.60786,-0.96318 0.50022,-0.32105 0.78606,-0.51726 0.85752,-0.5886 0.0358,-0.0713 0.0714,-0.10702 0.10719,-0.10702 0.0358,0 0.28584,-0.21404 0.75034,-0.64211 0.42876,-0.3924 0.64314,-0.60644 0.64314,-0.64212 0,-0.0357 0.0713,-0.12485 0.21437,-0.26754 0.14293,-0.1427 0.25012,-0.26755 0.32158,-0.37457 0.10719,-0.0713 0.17866,-0.16053 0.21438,-0.26755 l 0.64314,-0.96316 c 0.35732,-0.53511 0.67887,-1.08802 0.96473,-1.6588 0.2501,-0.57077 0.44661,-1.05234 0.58954,-1.44474 0.1072,-0.39241 0.23225,-0.85617 0.37516,-1.39126 0.14293,-0.53509 0.23226,-1.1237 0.26798,-1.7658 l 0.10719,-0.90966 0,-0.85615 c -0.0358,-0.57076 -0.0893,-1.17722 -0.1608,-1.81933 -0.1429,-0.64211 -0.28583,-1.2307 -0.42876,-1.7658 -0.14291,-0.57077 -0.39302,-1.24856 -0.75031,-2.03336 l -0.53596,-1.1237 -0.0537,0 0,-0.0535 -0.0535,0 0,-0.0535 -0.0537,0 0,-0.0535 z"
     id="path6"
     inkscape:connector-curvature="0" />
</svg>
