<?xml version="1.0" encoding="UTF-8" standalone="no"?>
<!-- License Agreement at http://iconmonstr.com/license/ -->

<svg
   xmlns:dc="http://purl.org/dc/elements/1.1/"
   xmlns:cc="http://creativecommons.org/ns#"
   xmlns:rdf="http://www.w3.org/1999/02/22-rdf-syntax-ns#"
   xmlns:svg="http://www.w3.org/2000/svg"
   xmlns="http://www.w3.org/2000/svg"
   xmlns:sodipodi="http://sodipodi.sourceforge.net/DTD/sodipodi-0.dtd"
   xmlns:inkscape="http://www.inkscape.org/namespaces/inkscape"
   version="1.1"
   x="0px"
   y="0px"
   width="64"
   height="64"
   viewBox="0 0 64 64"
   enable-background="new 0 0 512 512"
   xml:space="preserve"
   id="svg4009"
   inkscape:version="0.48.2 r9819"
   sodipodi:docname="iconmonstr-tools-2-icon.svg"><metadata
   id="metadata4016"><rdf:RDF><cc:Work
       rdf:about=""><dc:format>image/svg+xml</dc:format><dc:type
         rdf:resource="http://purl.org/dc/dcmitype/StillImage" /><dc:title></dc:title></cc:Work></rdf:RDF></metadata><defs
   id="defs4014" /><sodipodi:namedview
   pagecolor="#ffffff"
   bordercolor="#666666"
   borderopacity="1"
   objecttolerance="10"
   gridtolerance="10"
   guidetolerance="10"
   inkscape:pageopacity="0"
   inkscape:pageshadow="2"
   inkscape:window-width="1436"
   inkscape:window-height="856"
   id="namedview4012"
   showgrid="false"
   inkscape:zoom="0.4609375"
   inkscape:cx="-130.16949"
   inkscape:cy="256"
   inkscape:window-x="4"
   inkscape:window-y="0"
   inkscape:window-maximized="1"
   inkscape:current-layer="svg4009" />
<path
   id="tools-2-icon"
   d="M 51.842722,46.437124 29.699777,24.293946 C 28.635038,23.229439 28.086648,21.748777 28.20292,20.24761 28.422765,17.403838 27.445638,14.485038 25.270606,12.310122 22.439533,9.4790502 18.348226,8.6772622 14.802512,9.9033612 l 6.437369,6.4373688 c 0.147729,2.511499 -3.735384,6.394378 -6.24665,6.24665 L 8.555979,16.150128 c -1.226099,3.545597 -0.424428,7.637021 2.406644,10.468093 2.174916,2.175032 5.093833,3.151927 7.937604,2.932082 1.502449,-0.116272 2.980665,0.431185 4.046336,1.49674 l 22.143178,22.143178 c 1.86478,1.864896 4.887969,1.864896 6.752981,0 1.86478,-1.864896 1.86478,-4.888318 0,-6.753097 z m -3.609326,5.053172 c -1.086758,0 -1.968119,-0.881011 -1.968119,-1.968119 0,-1.086759 0.881244,-1.968003 1.968119,-1.968003 1.086876,0 1.96812,0.881128 1.96812,1.968003 0,1.087108 -0.881361,1.968119 -1.96812,1.968119 z M 34.376755,24.079343 45.79448,12.661618 c 2.334644,-2.334761 6.119893,-2.334761 8.454537,0 2.334644,2.334761 2.334644,6.119892 0,8.454536 L 42.831291,32.53388 40.76123,30.463935 51.660625,19.564541 c 0.336583,-0.33635 0.336583,-0.88171 0,-1.218293 -0.33635,-0.336234 -0.88171,-0.336234 -1.218293,1.16e-4 L 39.542937,29.245759 37.770779,27.473601 48.669941,16.57409 c 0.336583,-0.33635 0.336583,-0.88171 2.33e-4,-1.218177 -0.33635,-0.336466 -0.88171,-0.336466 -1.218293,0 L 36.552486,26.255191 34.376755,24.079343 z m -5.998378,17.291094 -8.426109,8.426226 c -0.456817,0.456699 -0.841283,0.980273 -1.140468,1.552895 l -0.605477,1.159225 -4.197093,2.143809 -1.660546,-1.660546 2.053284,-4.287967 1.159109,-0.60536 c 0.572622,-0.298952 1.096312,-0.683652 1.552895,-1.140468 l 8.426226,-8.42611 2.838179,2.838296 z"
   inkscape:connector-curvature="0"
   style="fill:#dddddd;fill-opacity:1" />
</svg>