<?xml version="1.0" encoding="UTF-8" standalone="no"?>
<!-- Created with Inkscape (http://www.inkscape.org/) -->

<svg
   xmlns:dc="http://purl.org/dc/elements/1.1/"
   xmlns:cc="http://creativecommons.org/ns#"
   xmlns:rdf="http://www.w3.org/1999/02/22-rdf-syntax-ns#"
   xmlns:svg="http://www.w3.org/2000/svg"
   xmlns="http://www.w3.org/2000/svg"
   xmlns:sodipodi="http://sodipodi.sourceforge.net/DTD/sodipodi-0.dtd"
   xmlns:inkscape="http://www.inkscape.org/namespaces/inkscape"
   version="1.0"
   width="31.999338"
   height="31.999338"
   id="svg1931"
   sodipodi:version="0.32"
   inkscape:version="0.48.2 r9819"
   sodipodi:docname="stop_upload.svg"
   inkscape:output_extension="org.inkscape.output.svg.inkscape">
  <metadata
     id="metadata2592">
    <rdf:RDF>
      <cc:Work
         rdf:about="">
        <dc:format>image/svg+xml</dc:format>
        <dc:type
           rdf:resource="http://purl.org/dc/dcmitype/StillImage" />
      </cc:Work>
    </rdf:RDF>
  </metadata>
  <sodipodi:namedview
     inkscape:window-height="856"
     inkscape:window-width="1436"
     inkscape:pageshadow="2"
     inkscape:pageopacity="0.0"
     guidetolerance="10.0"
     gridtolerance="10.0"
     objecttolerance="10.0"
     borderopacity="1.0"
     bordercolor="#666666"
     pagecolor="#ffffff"
     id="base"
     showgrid="false"
     inkscape:zoom="13.095791"
     inkscape:cx="15.357194"
     inkscape:cy="15.882716"
     inkscape:window-x="4"
     inkscape:window-y="0"
     inkscape:current-layer="g2784"
     fit-margin-top="0"
     fit-margin-left="0"
     fit-margin-right="0"
     fit-margin-bottom="0"
     inkscape:window-maximized="1" />
  <defs
     id="defs1933">
    <inkscape:perspective
       sodipodi:type="inkscape:persp3d"
       inkscape:vp_x="0 : 300 : 1"
       inkscape:vp_y="0 : 1000 : 0"
       inkscape:vp_z="600 : 300 : 1"
       inkscape:persp3d-origin="300 : 200 : 1"
       id="perspective2594" />
  </defs>
  <g
     id="g2784"
     transform="matrix(0.05326842,0,0,0.05326825,0.00667796,0.03170903)">
    <path
       id="path32"
       style="fill:#ffffff;fill-rule:evenodd;stroke:#000000;stroke-width:3;stroke-miterlimit:4;stroke-opacity:1;stroke-dasharray:none"
       d="m 188.97948,598.62537 -1.79098,0 -3.13419,-0.44776 -3.58197,-0.89546 -3.13421,-0.89553 -3.1342,-1.34322 -2.68648,-1.79098 -2.68646,-2.23874 L 8.9862875,431.169 l -2.2387213,-2.68644 -1.7909771,-2.68651 -1.3432328,-3.1342 -1.7909772,-6.2684 -0.4477443,-3.58197 0,-226.11088 0.4477443,-3.1342 0.8954886,-3.58196 0.8954886,-3.1342 1.3432328,-2.68644 1.7909771,-3.1342 2.2387213,-2.68651 L 10.329521,167.4551 167.9355,9.8490942 l 0.89549,-1.3432191 5.37294,-3.5819642 3.1342,-1.7909821 3.13421,-0.8955259 3.58197,-0.8954562 3.13419,-0.44776294 226.11087,0 3.13421,0.44776294 3.58197,0.8954562 3.13419,0.8955259 2.68647,1.7909821 3.1342,1.7909821 2.68648,1.7909821 0.89549,1.3432191 157.60598,157.6060058 1.34324,0.88799 2.23871,2.68651 1.79099,3.1342 1.34322,2.68644 0.8955,3.1342 0.88802,3.58196 0.44775,3.1342 0,226.11088 -0.44775,3.58197 -1.78352,6.2684 -1.34322,3.1342 -1.79099,2.68651 -2.23871,2.68644 -159.84471,159.84468 -2.68648,2.23874 -3.1342,1.79098 -2.68647,1.34322 -3.13419,0.89553 -3.58197,0.89546 -3.13421,0.44776 -224.31989,0"
       inkscape:connector-curvature="0" />
    <path
       id="path36"
       style="fill:#d40000;fill-opacity:0.79555553;fill-rule:evenodd;stroke:none"
       d="M 188.97948,568.62651 31.373502,411.0205 l 0,-222.52892 157.605978,-157.606001 222.52892,0 157.60598,157.606001 0,222.52892 -157.60598,157.60601 -222.52892,0"
       inkscape:connector-curvature="0" />
    <path
       id="path34"
       style="fill:none;stroke:none"
       d="m 188.97948,598.62537 -1.79098,0 m 0,0 -3.13419,-0.44776 m 0,0 -3.58197,-0.89546 m 0,0 -3.13421,-0.89553 m 0,0 -3.1342,-1.34322 m 0,0 -2.68648,-1.79098 m 0,0 -2.68646,-2.23874 m 0,0 -0.89549,-0.89546 L 10.329521,432.51222 8.9862875,431.169 m 0,0 -2.2387213,-2.68644 m 0,0 -1.7909771,-2.68651 m 0,0 -1.3432328,-3.1342 m 0,0 -0.8954886,-3.1342 -0.8954886,-3.1342 m 0,0 -0.4477443,-3.58197 m 0,0 0,-1.79098 0,-222.52892 0,-1.79098 m 0,0 0.4477443,-3.1342 m 0,0 0.8954886,-3.58196 m 0,0 0.8954886,-3.1342 m 0,0 1.3432328,-2.68644 m 0,0 1.7909771,-3.1342 m 0,0 2.2387213,-2.68651 m 0,0 1.3432335,-0.89546 m 0,0 L 167.9355,9.8416269 m 0,0 0.89549,-1.3432192 m 0,0 2.68646,-1.790982 2.68648,-1.7909821 m 0,0 3.1342,-1.7909821 m 0,0 3.13421,-0.8954562 m 0,0 3.58197,-0.8955259 m 0,0 3.13419,-0.44776301 m 0,0 1.79098,0 222.52892,0 1.79097,0 m 0,0 3.13421,0.44776301 m 0,0 3.58197,0.8955259 m 0,0 3.13419,0.8954562 m 0,0 2.68647,1.7909821 m 0,0 3.1342,1.7909821 m 0,0 2.68648,1.790982 m 0,0 0.89549,1.3432192 m 0,0 157.60598,157.6060031 m 0,0 1.34324,0.89546 m 0,0 2.23871,2.68651 m 0,0 1.79099,3.1342 m 0,0 1.34322,2.68644 m 0,0 0.8955,3.1342 m 0,0 0.89548,3.58196 m 0,0 0.44775,3.1342 m 0,0 0,1.79098 0,222.52892 0,1.79098 m 0,0 -0.44775,3.58197 m 0,0 -0.89548,3.1342 -0.8955,3.1342 m 0,0 -1.34322,3.1342 m 0,0 -1.79099,2.68651 m 0,0 -2.23871,2.68644 m 0,0 -1.34324,1.34322 -157.60598,157.606 -0.89549,0.89546 m 0,0 -2.68648,2.23874 m 0,0 -3.1342,1.79098 m 0,0 -2.68647,1.34322 m 0,0 -3.13419,0.89553 m 0,0 -3.58197,0.89546 m 0,0 -3.13421,0.44776 m 0,0 -1.79097,0 m 0,0 -222.52892,0"
       inkscape:connector-curvature="0" />
  </g>
  <g
     transform="matrix(0.62227236,0,0,0.62227032,-425.80658,-416.8254)"
     id="layer1"
     inkscape:label="Layer 1">
    <g
       transform="translate(44.740145,-27.387107)"
       id="g3034">
      <rect
         style="fill:#ffffff;fill-opacity:1;fill-rule:evenodd;stroke:#dddddd;stroke-width:0.71589988;stroke-linecap:butt;stroke-linejoin:miter;stroke-miterlimit:4;stroke-opacity:0.51999996;stroke-dasharray:none"
         id="rect3025"
         width="28.511286"
         height="4.3492584"
         x="650.66687"
         y="730.78491" />
      <path
         inkscape:connector-curvature="0"
         style="fill:#ffffff;fill-opacity:1;fill-rule:evenodd;stroke:#dddddd;stroke-width:0.71589988px;stroke-linecap:butt;stroke-linejoin:round;stroke-opacity:0.51999996"
         d="m 664.87707,706.88014 -7.58406,10.13446 c 2.71507,0.008 3.64471,0.01 4.74284,0.0223 l 0,9.95548 5.23501,0 0,-9.91074 c 0.56967,-0.006 0.047,0.006 5.12316,-0.0671 l -7.51695,-10.13446 z"
         id="rect3027" />
    </g>
  </g>
</svg>
