<?xml version="1.0" encoding="UTF-8" standalone="no"?>
<!-- The icon can be used freely in both personal and commercial projects with no attribution required, but always appreciated. 
You may NOT sub-license, resell, rent, redistribute or otherwise transfer the icon without express written permission from iconmonstr.com -->

<svg
   xmlns:dc="http://purl.org/dc/elements/1.1/"
   xmlns:cc="http://creativecommons.org/ns#"
   xmlns:rdf="http://www.w3.org/1999/02/22-rdf-syntax-ns#"
   xmlns:svg="http://www.w3.org/2000/svg"
   xmlns="http://www.w3.org/2000/svg"
   xmlns:sodipodi="http://sodipodi.sourceforge.net/DTD/sodipodi-0.dtd"
   xmlns:inkscape="http://www.inkscape.org/namespaces/inkscape"
   version="1.1"
   x="0px"
   y="0px"
   width="64"
   height="64"
   viewBox="0 0 64 64"
   enable-background="new 0 0 512 512"
   xml:space="preserve"
   id="svg10901"
   inkscape:version="0.48.2 r9819"
   sodipodi:docname="remove.svg"><metadata
   id="metadata10908"><rdf:RDF><cc:Work
       rdf:about=""><dc:format>image/svg+xml</dc:format><dc:type
         rdf:resource="http://purl.org/dc/dcmitype/StillImage" /><dc:title></dc:title></cc:Work></rdf:RDF></metadata><defs
   id="defs10906" /><sodipodi:namedview
   pagecolor="#ffffff"
   bordercolor="#666666"
   borderopacity="1"
   objecttolerance="10"
   gridtolerance="10"
   guidetolerance="10"
   inkscape:pageopacity="0"
   inkscape:pageshadow="2"
   inkscape:window-width="1436"
   inkscape:window-height="856"
   id="namedview10904"
   showgrid="false"
   inkscape:zoom="7.375"
   inkscape:cx="59.486526"
   inkscape:cy="36.318438"
   inkscape:window-x="4"
   inkscape:window-y="0"
   inkscape:window-maximized="1"
   inkscape:current-layer="svg10901" />

<path
   id="minus-5-icon"
   d="M 56,32 C 56,45.254874 45.254874,56 32,56 18.745126,56 8,45.254874 8,32 8,18.745126 18.745126,8 32,8 45.254874,8 56,18.745126 56,32 z m -4.660194,0 C 51.339806,21.310097 42.688388,12.660194 32,12.660194 21.310097,12.660194 12.660194,21.311728 12.660194,32 c 0,10.689903 8.651418,19.339806 19.339806,19.339806 10.689903,0 19.339806,-8.651534 19.339806,-19.339806 z"
   inkscape:connector-curvature="0"
   style="fill:#dddddd;fill-opacity:1"
   sodipodi:nodetypes="ssssssssss" />

<rect
   style="fill:#dddddd;fill-opacity:1;stroke:#dddddd;stroke-width:0.94075143;stroke-opacity:1"
   id="rect12031"
   width="3.4492028"
   height="44.608177"
   x="-1.7246013"
   y="22.950745"
   transform="matrix(0.70710678,-0.70710678,0.70710678,0.70710678,0,0)" /></svg>