<?xml version="1.0" standalone="no"?>
<!DOCTYPE svg PUBLIC "-//W3C//DTD SVG 1.1//EN" "http://www.w3.org/Graphics/SVG/1.1/DTD/svg11.dtd">
<svg width="100%" height="100%" viewBox="0 0 48 48" version="1.1" xmlns="http://www.w3.org/2000/svg" xmlns:xlink="http://www.w3.org/1999/xlink" xml:space="preserve" style="fill-rule:evenodd;clip-rule:evenodd;stroke-miterlimit:1.41421;">
    <g id="g4128" transform="matrix(0.830359,0,0,0.830359,-563.878,-584.371)">
        <path id="rect3025-8" d="M691.024,744.286L725.016,744.286C725.899,744.286 725.886,744.337 725.886,745.161L725.886,748.857C725.946,749.76 725.811,749.749 725.033,749.749L707.978,749.749L690.838,749.749C690.063,749.749 690.07,749.715 690.07,748.874L690.07,747.017L690.07,745.239C690.07,744.289 690.072,744.286 691.024,744.286L691.024,744.286Z" style="fill:rgb(0,118,239);stroke-width:0.13px;stroke:rgb(0,52,104);"/>
        <path id="rect3027-6" d="M707.546,715.531C704.463,719.391 701.693,722.858 698.966,726.271C698.395,726.939 698.623,726.99 699.468,726.999C700.358,727.007 703.662,727.007 704.352,727.016L704.352,738.602C704.352,739.487 704.413,739.522 705.21,739.522L709.978,739.522C710.922,739.589 710.928,739.528 710.928,738.576L710.928,727.072C711.286,727.068 715.188,727.07 715.798,727.061C716.549,727.019 717.048,727.151 716.328,726.271C713.401,722.691 710.474,719.111 707.546,715.531Z" style="fill:rgb(255,0,133);stroke-width:0.13px;stroke:rgb(131,0,68);"/>
    </g>
</svg>
