<?xml version="1.0" encoding="UTF-8" standalone="no"?>
<!-- The icon can be used freely in both personal and commercial projects with no attribution required, but always appreciated. 
You may NOT sub-license, resell, rent, redistribute or otherwise transfer the icon without express written permission from iconmonstr.com -->

<svg
   xmlns:dc="http://purl.org/dc/elements/1.1/"
   xmlns:cc="http://creativecommons.org/ns#"
   xmlns:rdf="http://www.w3.org/1999/02/22-rdf-syntax-ns#"
   xmlns:svg="http://www.w3.org/2000/svg"
   xmlns="http://www.w3.org/2000/svg"
   xmlns:sodipodi="http://sodipodi.sourceforge.net/DTD/sodipodi-0.dtd"
   xmlns:inkscape="http://www.inkscape.org/namespaces/inkscape"
   version="1.1"
   x="0px"
   y="0px"
   width="64"
   height="64"
   viewBox="0 0 64 64"
   enable-background="new 0 0 512 512"
   xml:space="preserve"
   id="svg6686"
   inkscape:version="0.48.2 r9819"
   sodipodi:docname="iconmonstr-credit-card-11-icon.svg"><metadata
   id="metadata6693"><rdf:RDF><cc:Work
       rdf:about=""><dc:format>image/svg+xml</dc:format><dc:type
         rdf:resource="http://purl.org/dc/dcmitype/StillImage" /><dc:title></dc:title></cc:Work></rdf:RDF></metadata><defs
   id="defs6691" /><sodipodi:namedview
   pagecolor="#ffffff"
   bordercolor="#666666"
   borderopacity="1"
   objecttolerance="10"
   gridtolerance="10"
   guidetolerance="10"
   inkscape:pageopacity="0"
   inkscape:pageshadow="2"
   inkscape:window-width="1436"
   inkscape:window-height="856"
   id="namedview6689"
   showgrid="false"
   inkscape:zoom="2.6074563"
   inkscape:cx="15.043573"
   inkscape:cy="30.91463"
   inkscape:window-x="4"
   inkscape:window-y="0"
   inkscape:window-maximized="1"
   inkscape:current-layer="svg6686" />
<path
   id="credit-card-11-icon"
   d="m 46.136816,27.128117 c -5.447301,0 -9.863185,4.415883 -9.863185,9.863068 0,5.447301 4.415884,9.863184 9.863185,9.863184 C 51.584117,46.854369 56,42.438486 56,36.991185 56,31.544 51.584117,27.128117 46.136816,27.128117 z m -1.67802,15.175689 -4.659845,-4.661126 1.984078,-1.984544 2.675767,2.676466 6.177204,-6.177204 1.98501,1.983612 -8.162214,8.162796 z M 14.995184,38 h 8.34967 v 2.213592 h -8.34967 V 38 z m 22.13301,8.854369 H 11.495146 C 9.564893,46.854369 8,45.289476 8,43.359223 V 20.640777 c 0,-1.930253 1.564893,-3.495146 3.495146,-3.495146 h 36.658835 c 1.930252,0 3.495145,1.564893 3.495145,3.495146 v 4.17565 c -1.106563,-0.50167 -2.280349,-0.849786 -3.495145,-1.032699 v -1.977903 c 0,-0.643456 -0.521709,-1.165048 -1.165049,-1.165048 H 12.660194 c -0.64334,0 -1.165048,0.521592 -1.165048,1.165048 v 2.465942 h 30.541281 c -3.30501,1.061359 -5.995456,3.371418 -7.594136,6.252466 H 11.495146 v 11.669942 c 0,0.64334 0.521708,1.165048 1.165048,1.165048 h 21.727573 c 0.724427,1.332233 1.654019,2.500661 2.740427,3.495146 z M 30.393398,35.84466 H 14.995184 v -2.213592 h 15.398214 v 2.213592 z"
   inkscape:connector-curvature="0"
   style="fill:#dddddd;fill-opacity:1" />
</svg>