<?xml version="1.0" standalone="no"?>
<!DOCTYPE svg PUBLIC "-//W3C//DTD SVG 1.1//EN" "http://www.w3.org/Graphics/SVG/1.1/DTD/svg11.dtd">
<svg width="100%" height="100%" viewBox="0 0 64 64" version="1.1" xmlns="http://www.w3.org/2000/svg" xmlns:xlink="http://www.w3.org/1999/xlink" xml:space="preserve" style="fill-rule:evenodd;clip-rule:evenodd;stroke-linejoin:round;stroke-miterlimit:1.41421;">
    <path id="tools-2-icon" d="M51.843,46.437L29.7,24.294C28.635,23.229 28.087,21.749 28.203,20.248C28.423,17.404 27.446,14.485 25.271,12.31C22.44,9.479 18.348,8.677 14.803,9.903L21.24,16.341C21.388,18.852 17.504,22.735 14.993,22.587L8.556,16.15C7.33,19.696 8.132,23.787 10.963,26.618C13.138,28.793 16.056,29.77 18.9,29.55C20.403,29.434 21.881,29.981 22.947,31.047L45.09,53.19C46.955,55.055 49.978,55.055 51.843,53.19C53.708,51.325 53.708,48.302 51.843,46.437ZM48.233,51.49C47.147,51.49 46.265,50.609 46.265,49.522C46.265,48.435 47.147,47.554 48.233,47.554C49.32,47.554 50.202,48.435 50.202,49.522C50.202,50.609 49.32,51.49 48.233,51.49ZM34.377,24.079L45.794,12.662C48.129,10.327 51.914,10.327 54.249,12.662C56.584,14.996 56.584,18.782 54.249,21.116L42.831,32.534L40.761,30.464L51.661,19.565C51.997,19.228 51.997,18.683 51.661,18.346C51.324,18.01 50.779,18.01 50.442,18.346L39.543,29.246L37.771,27.474L48.67,16.574C49.007,16.238 49.007,15.692 48.67,15.356C48.334,15.019 47.788,15.019 47.452,15.356L36.552,26.255L34.377,24.079ZM28.378,41.37L18.952,50.797C18.495,51.253 18.111,51.777 17.812,52.35L17.206,53.509L13.009,55.653L11.349,53.992L13.402,49.704L14.561,49.099C15.134,48.8 15.657,48.415 16.114,47.958L25.54,38.532L28.378,41.37Z" style="fill:rgb(221,221,221);fill-rule:nonzero;"/>
</svg>
