<?xml version="1.0" encoding="UTF-8" standalone="no"?>
<!-- The icon can be used freely in both personal and commercial projects with no attribution required, but always appreciated. 
You may NOT sub-license, resell, rent, redistribute or otherwise transfer the icon without express written permission from iconmonstr.com -->

<svg
   xmlns:dc="http://purl.org/dc/elements/1.1/"
   xmlns:cc="http://creativecommons.org/ns#"
   xmlns:rdf="http://www.w3.org/1999/02/22-rdf-syntax-ns#"
   xmlns:svg="http://www.w3.org/2000/svg"
   xmlns="http://www.w3.org/2000/svg"
   xmlns:sodipodi="http://sodipodi.sourceforge.net/DTD/sodipodi-0.dtd"
   xmlns:inkscape="http://www.inkscape.org/namespaces/inkscape"
   version="1.1"
   x="0px"
   y="0px"
   width="64"
   height="64"
   viewBox="0 0 64 64"
   enable-background="new 0 0 512 512"
   xml:space="preserve"
   id="svg4597"
   inkscape:version="0.48.2 r9819"
   sodipodi:docname="iconmonstr-video-icon.svg"><metadata
   id="metadata4604"><rdf:RDF><cc:Work
       rdf:about=""><dc:format>image/svg+xml</dc:format><dc:type
         rdf:resource="http://purl.org/dc/dcmitype/StillImage" /><dc:title></dc:title></cc:Work></rdf:RDF></metadata><defs
   id="defs4602" /><sodipodi:namedview
   pagecolor="#ffffff"
   bordercolor="#666666"
   borderopacity="1"
   objecttolerance="10"
   gridtolerance="10"
   guidetolerance="10"
   inkscape:pageopacity="0"
   inkscape:pageshadow="2"
   inkscape:window-width="1436"
   inkscape:window-height="856"
   id="namedview4600"
   showgrid="false"
   inkscape:zoom="0.4609375"
   inkscape:cx="-130.16949"
   inkscape:cy="256"
   inkscape:window-x="4"
   inkscape:window-y="0"
   inkscape:window-maximized="1"
   inkscape:current-layer="svg4597" />
<path
   id="video-icon"
   d="M 8,9.2051845 V 54.794815 H 56 V 9.2051845 H 8 z M 18.183456,50.042116 h -5.249009 v -4.514213 h 5.249126 v 4.514213 z m 0,-7.873864 h -5.249009 v -4.514214 h 5.249126 v 4.514214 z m 0,-7.911379 H 12.934447 V 29.74266 h 5.249126 v 4.514213 z m 0,-7.836233 h -5.249009 v -4.51433 h 5.249126 v 4.51433 z m 0,-7.87398 h -5.249009 v -4.514214 h 5.249126 V 18.54666 z M 41.512155,50.042116 H 22.908078 V 34.294388 h 18.604077 v 15.747728 z m 0,-20.261942 H 22.908078 V 14.032446 h 18.604077 v 15.747728 z m 9.973631,20.261942 h -5.249009 v -4.514213 h 5.249009 v 4.514213 z m 0,-7.873864 h -5.249009 v -4.514214 h 5.249009 v 4.514214 z m 0,-7.911379 H 46.236777 V 29.74266 h 5.249009 v 4.514213 z m 0,-7.836233 h -5.249009 v -4.51433 h 5.249009 v 4.51433 z m 0,-7.87398 h -5.249009 v -4.514214 h 5.249009 v 4.514214 z"
   inkscape:connector-curvature="0"
   style="fill:#dddddd;fill-opacity:1" />
</svg>